<svg width="44" height="44" viewBox="0 0 44 44" fill="none" xmlns="http://www.w3.org/2000/svg">
<path fill-rule="evenodd" clip-rule="evenodd" d="M15 13.1111C15 17.0385 18.134 20.2222 22 20.2222C25.866 20.2222 29 17.0385 29 13.1111C29 9.18375 25.866 6 22 6C18.134 6 15 9.18375 15 13.1111ZM26.375 13.1124C26.375 15.567 24.4162 17.5569 22 17.5569C19.5838 17.5569 17.625 15.567 17.625 13.1124C17.625 10.6578 19.5838 8.66797 22 8.66797C24.4162 8.66797 26.375 10.6578 26.375 13.1124ZM33.375 35.3346V31.7791C33.375 29.8931 32.6375 28.0844 31.3247 26.7508C30.012 25.4172 28.2315 24.668 26.375 24.668H17.625C15.7685 24.668 13.988 25.4172 12.6753 26.7508C11.3625 28.0844 10.625 29.8931 10.625 31.7791V35.3346H33.375ZM26.375 22H17.625C12.3094 22 8 26.3778 8 31.7778V38H36V31.7778C36 26.3778 31.6906 22 26.375 22Z" fill="#96CC39"/>
<path d="M16 22.5L33.5 25.5V35.5H9.5L10 27L16 22.5Z" fill="#96CC39"/>
<circle cx="22" cy="13" r="5" fill="#96CC39"/>
</svg>
