<svg width="45" height="44" viewBox="0 0 45 44" fill="none" xmlns="http://www.w3.org/2000/svg">
<path fill-rule="evenodd" clip-rule="evenodd" d="M35.5615 9C35.5615 7.89543 34.6661 7 33.5615 7H11.5615C10.457 7 9.56152 7.89543 9.56152 9V36C9.56152 37.1046 10.457 38 11.5615 38H33.5615C34.6661 38 35.5615 37.1046 35.5615 36V9ZM16.5201 7.99023H22.7391C23.3743 7.99023 23.8891 8.50511 23.8891 9.14023V21.5427C23.8891 22.5864 22.6108 23.0904 21.8986 22.3275L19.6295 19.8966L17.3606 22.3275C16.6758 23.061 15.4676 22.6233 15.3756 21.6607L15.3701 21.5427V9.14023C15.3701 8.50511 15.8849 7.99023 16.5201 7.99023Z" fill="#666666"/>
</svg>
