<svg width="45" height="44" viewBox="0 0 45 44" fill="none" xmlns="http://www.w3.org/2000/svg">
<path fill-rule="evenodd" clip-rule="evenodd" d="M35.5605 9C35.5605 7.89543 34.6651 7 33.5605 7H11.5605C10.456 7 9.56055 7.89543 9.56055 9V36C9.56055 37.1046 10.456 38 11.5605 38H33.5605C34.6651 38 35.5605 37.1046 35.5605 36V9ZM16.5191 7.99023H22.7382C23.3733 7.99023 23.8882 8.50511 23.8882 9.14023V21.5427C23.8882 22.5864 22.6098 23.0904 21.8976 22.3275L19.6285 19.8966L17.3597 22.3275C16.6748 23.061 15.4666 22.6233 15.3746 21.6607L15.3691 21.5427V9.14023C15.3691 8.50511 15.884 7.99023 16.5191 7.99023Z" fill="#96CC39"/>
</svg>
